#!OML:ASF F:\VICON\USERDATA\INSTALL\rory3\rory3.ASF
:FULLY-SPECIFIED
:DEGREES
300
root 4.97837 17.1288 2.29335 11.0486 -11.3511 -6.38376
lowerback 9.1151 -1.24736 4.10297
upperback 0.874324 -1.16309 1.93107
thorax -4.24597 -0.634394 -0.151894
lowerneck -13.2944 0.331977 -2.59972
upperneck 40.6221 0.965061 0.202352
head 16.9964 -0.0812725 0.700488
rclavicle 1.30701e-014 -3.3197e-014
rhumerus -24.2885 4.695 -29.0636
rradius 77.3307
rwrist -22.2891
rhand -7.73192 -41.8665
rfingers 7.12502
rthumb 18.1668 -71.0382
lclavicle 1.30701e-014 -3.3197e-014
lhumerus -2.28195 5.81184 10.5565
lradius 35.8882
lwrist 32.563
lhand -22.8101 -22.9343
lfingers 7.12502
lthumb 3.62646 7.01461
rfemur -82.8814 4.49455 17.742
rtibia 111.723
rfoot 47.9286 3.34856
rtoes -7.85389
lfemur -29.4249 2.06553 -23.5854
ltibia 37.9192
lfoot -17.0002 9.84257
ltoes 15.0444
301
root 4.98272 17.1248 2.2862 10.9109 -11.0854 -6.27392
lowerback 9.26094 -1.36578 4.05948
upperback 1.01077 -1.32023 1.96193
thorax -4.18856 -0.708963 -0.0742039
lowerneck -13.445 0.361566 -2.52184
upperneck 40.7555 1.06399 0.0248047
head 17.1108 -0.0562879 0.625169
rclavicle 3.18055e-015 -1.27222e-014
rhumerus -24.3235 4.61243 -29.2973
rradius 76.1919
rwrist -20.7215
rhand -6.44351 -43.2319
rfingers 7.12502
rthumb 19.406 -72.2835
lclavicle 3.18055e-015 -1.27222e-014
lhumerus -2.98843 5.22129 10.9015
lradius 36.3194
lwrist 32.9064
lhand -23.2011 -21.9669
lfingers 7.12502
lthumb 3.24893 7.98808
rfemur -83.5921 4.12988 17.8436
rtibia 112.153
rfoot 47.9586 3.25551
rtoes -7.5598
lfemur -29.3091 2.26298 -23.7272
ltibia 37.8157
lfoot -16.9932 9.42445
ltoes 14.8097
302
root 4.98699 17.134 2.28574 10.757 -10.9571 -6.17047
lowerback 9.38241 -1.40138 4.01674
upperback 1.17822 -1.37387 1.90325
thorax -4.08365 -0.732202 -0.104411
lowerneck -13.5097 0.366709 -2.29318
upperneck 40.6403 1.05882 -0.115475
head 17.0657 -0.0397899 0.519767
rclavicle -4.19436e-014 1.5704e-014
rhumerus -24.5483 4.41833 -29.6489
rradius 75.0175
rwrist -19.2881
rhand -4.93415 -45.5369
rfingers 7.12502
rthumb 20.8567 -74.4358
lclavicle -4.19436e-014 1.5704e-014
lhumerus -3.10363 5.43403 11.3885
lradius 36.1447
lwrist 32.4964
lhand -23.2823 -21.4473
lfingers 7.12502
lthumb 3.17044 8.50888
rfemur -84.1632 3.8941 17.9629
rtibia 112.441
rfoot 48.0638 3.51642
rtoes -7.60859
lfemur -29.1075 2.46047 -23.8647
ltibia 37.6869
lfoot -16.9785 9.08747
ltoes 14.6719
303
root 4.99025 17.141 2.29082 10.5174 -10.9361 -6.09085
lowerback 9.52743 -1.38423 3.97339
upperback 1.38451 -1.35848 1.82934
thorax -3.94942 -0.720732 -0.159153
lowerneck -13.4038 0.408872 -1.91856
upperneck 40.3445 1.11487 -0.394817
head 16.8785 0.00872742 0.33603
rclavicle 2.70844e-014 1.59028e-015
rhumerus -24.9227 4.34181 -29.967
rradius 74.0517
rwrist -18.3062
rhand -4.9539 -45.9666
rfingers 7.12502
rthumb 20.8377 -74.8676
lclavicle 2.70844e-014 1.59028e-015
lhumerus -3.33495 5.52133 11.7994
lradius 36.157
lwrist 32.3949
lhand -23.3722 -21.4536
lfingers 7.12502
lthumb 3.08365 8.50381
rfemur -84.5874 3.77211 18.0834
rtibia 112.752
rfoot 48.0528 3.5954
rtoes -7.60226
lfemur -28.7778 2.72925 -23.9939
ltibia 37.5684
lfoot -16.964 8.82233
ltoes 14.5428
304
root 4.9949 17.1434 2.29484 10.3326 -10.9251 -6.20048
lowerback 9.66951 -1.38168 4.08584
upperback 1.55684 -1.34115 1.85901
thorax -3.84993 -0.710686 -0.193113
lowerneck -13.2899 0.432857 -1.74208
upperneck 40.121 1.16545 -0.576462
head 16.7296 0.0360748 0.231899
rclavicle 1.43125e-014 2.127e-014
rhumerus -25.1638 4.32749 -30.126
rradius 73.03
rwrist -17.6095
rhand -4.9542 -45.0473
rfingers 7.12502
rthumb 20.8374 -73.9483
lclavicle 1.43125e-014 2.127e-014
lhumerus -3.75084 5.58822 12.1976
lradius 36.1066
lwrist 32.3233
lhand -22.9115 -22.1274
lfingers 7.12502
lthumb 3.52857 7.8231
rfemur -85.0015 3.74374 18.3818
rtibia 113.074
rfoot 47.9387 4.08666
rtoes -8.85821
lfemur -28.5376 3.07889 -23.9356
ltibia 37.518
lfoot -16.9534 8.57602
ltoes 14.6846
305
root 4.99901 17.1396 2.28915 10.3247 -10.8972 -6.32189
lowerback 9.83226 -1.40707 4.17344
upperback 1.66168 -1.35896 1.89628
thorax -3.8327 -0.71923 -0.198965
lowerneck -13.5638 0.422641 -1.77289
upperneck 40.2597 1.14337 -0.514525
head 16.8746 0.027681 0.262018
rclavicle -1.43622e-014 -2.8625e-014
rhumerus -25.0572 4.15859 -30.3089
rradius 71.4641
rwrist -17.0962
rhand -4.19324 -44.1195
rfingers 7.12502
rthumb 21.5684 -72.9385
lclavicle -1.43622e-014 -2.8625e-014
lhumerus -4.08151 5.63907 12.5775
lradius 35.8664
lwrist 32.1753
lhand -22.7308 -22.9621
lfingers 7.12502
lthumb 3.70305 6.98545
rfemur -85.7399 3.68716 18.7054
rtibia 113.404
rfoot 48.177 4.54117
rtoes -10.3561
lfemur -28.6071 3.42696 -23.866
ltibia 37.5689
lfoot -16.9794 8.30489
ltoes 14.7735
306
root 5.00048 17.132 2.27937 10.3946 -10.7573 -6.32553
lowerback 10.0151 -1.31673 4.2488
upperback 1.29224 -1.20096 1.97835
thorax -4.31476 -0.651859 -0.166396
lowerneck -12.4026 0.270145 -2.24141
upperneck 40.3154 0.944026 -0.33448
head 16.6087 -0.0976916 0.38821
rclavicle 2.77802e-014 -4.77083e-015
rhumerus -25.7907 4.53743 -30.1709
rradius 70.0455
rwrist -17.0054
rhand -4.21047 -44.25
rfingers 7.12502
rthumb 21.5518 -73.0709
lclavicle 2.77802e-014 -4.77083e-015
lhumerus -4.26453 4.70324 13.3577
lradius 35.7893
lwrist 32.0792
lhand -23.1657 -22.7347
lfingers 7.12502
lthumb 3.28307 7.21973
rfemur -86.6796 3.47364 18.8984
rtibia 113.776
rfoot 48.5875 4.05936
rtoes -9.70983
lfemur -28.8203 3.6355 -23.9108
ltibia 37.6748
lfoot -16.9836 8.04346
ltoes 14.692
307
root 5.00322 17.1299 2.27216 10.407 -10.4433 -6.37038
lowerback 10.2825 -1.36604 4.32398
upperback 1.09879 -1.22895 2.06542
thorax -4.66726 -0.672934 -0.104104
lowerneck -12.005 0.188487 -2.31246
upperneck 40.4099 0.864515 -0.430985
head 16.5623 -0.154643 0.343445
rclavicle 5.66536e-015 4.96962e-015
rhumerus -26.6018 4.96609 -30.2145
rradius 69.6966
rwrist -17.2434
rhand -4.44107 -46.5881
rfingers 7.12502
rthumb 21.3304 -75.4342
lclavicle 5.66536e-015 4.96962e-015
lhumerus -4.5916 4.40711 13.9659
lradius 35.7488
lwrist 31.646
lhand -23.2737 -22.0428
lfingers 7.12502
lthumb 3.17882 7.91328
rfemur -87.427 3.0904 19.1511
rtibia 114.128
rfoot 48.9354 3.27633
rtoes -7.49269
lfemur -28.9262 3.65042 -23.8739
ltibia 37.7699
lfoot -16.9876 7.80507
ltoes 14.6985
308
root 5.00389 17.1311 2.26844 10.2771 -10.1583 -6.42977
lowerback 10.5713 -1.42647 4.38686
upperback 1.11307 -1.28196 2.11015
thorax -4.81568 -0.701623 -0.0781334
lowerneck -12.1299 0.115083 -2.24003
upperneck 40.5627 0.765387 -0.50297
head 16.6796 -0.196454 0.281643
rclavicle -1.42131e-014 3.04141e-014
rhumerus -27.4642 5.24479 -30.3612
rradius 69.8571
rwrist -17.4765
rhand -3.62696 -51.5778
rfingers 7.12502
rthumb 22.1121 -80.3334
lclavicle -1.42131e-014 3.04141e-014
lhumerus -4.70962 4.55109 14.4875
lradius 35.3978
lwrist 31.1474
lhand -22.8761 -22.4924
lfingers 7.12502
lthumb 3.56276 7.45756
rfemur -87.9505 2.72836 19.4635
rtibia 114.443
rfoot 49.0809 3.24996
rtoes -6.35101
lfemur -28.833 3.66692 -23.7858
ltibia 37.839
lfoot -17.0841 7.56307
ltoes 14.5874
309
root 5.00137 17.133 2.27029 10.1005 -10.0059 -6.48942
lowerback 10.695 -1.42724 4.44925
upperback 1.25172 -1.27414 2.10497
thorax -4.74021 -0.696498 -0.119271
lowerneck -12.168 0.0392666 -2.34039
upperneck 40.5971 0.608267 -0.317412
head 16.708 -0.250921 0.35598
rclavicle 5.2181e-015 -2.66371e-014
rhumerus -28.0341 5.03696 -30.6093
rradius 69.3595
rwrist -17.2248
rhand -3.59363 -52.961
rfingers 7.12502
rthumb 22.1441 -81.7128
lclavicle 5.2181e-015 -2.66371e-014
lhumerus -4.74784 4.63069 14.9521
lradius 35.1034
lwrist 31.0006
lhand -22.7901 -23.1376
lfingers 7.12502
lthumb 3.6458 6.81096
rfemur -88.4054 2.50301 19.7508
rtibia 114.699
rfoot 49.1654 3.64418
rtoes -5.87208
lfemur -28.6666 3.87546 -23.7186
ltibia 37.9026
lfoot -17.2333 7.22066
ltoes 14.436
